<?xml version="1.0" encoding="utf-8"?>
<!-- Generator: Adobe Illustrator 26.0.0, SVG Export Plug-In . SVG Version: 6.00 Build 0)  -->
<svg version="1.1" id="Layer_1" xmlns="http://www.w3.org/2000/svg" xmlns:xlink="http://www.w3.org/1999/xlink" x="0px" y="0px"
	 viewBox="0 0 100 100" style="enable-background:new 0 0 100 100;" xml:space="preserve">
<g>
	<g>
		<g>
			<path d="M89.1,16c-0.6-0.6-1.6-0.6-3.2-0.5C71.7,16.4,60.7,12,52,2.3C51.6,1.7,50.8,1,49.9,1c0,0,0,0,0,0c-0.7,0-1.3,0.4-2,1.2
				C39,12.3,27.8,16.7,13.5,15.5c-1.2-0.1-2-0.1-2.6,0.4c-0.5,0.5-0.6,1.3-0.6,2.6v27.6c0,10.1,2.8,19.5,8.4,27.9
				c6.7,10.1,16.3,18.2,29.2,24.5c0.8,0.3,1.5,0.5,2.2,0.5c0.7,0,1.3-0.2,2-0.5c10.2-4.8,18.8-11.5,25.6-19.9
				c7.4-8.9,11.4-18.6,11.7-28.9c0.3-6.8,0.3-13.7,0.3-20.4c0-3.4,0-6.8,0-10.2C89.7,17.6,89.7,16.6,89.1,16z M85.7,49.6
				c-0.3,8.9-3.5,17.3-10,25.6c-6.4,8.2-14.6,14.8-24.3,19.4c-0.8,0.3-1.7,0.4-2,0.2C36.1,88.3,26.7,80,20.5,69.4
				C16.4,62.5,14.2,55,14.1,47c-0.1-5.9,0-11.9,0-17.7c0-3,0-6,0-8.9c0-0.3,0-0.5,0-0.8C28.9,20.3,40.6,15.7,50,5.6
				c9.2,10,20.8,14.5,35.7,13.8c0,0,0,0,0,0c0,0.1,0.1,0.2,0.1,0.2c0,2,0,3.9,0,5.9C85.9,33.5,85.9,41.6,85.7,49.6z"/>
		</g>
		<g>
			<path d="M81.3,30.8c0,1.8,0,3.7-0.1,5.5c0,0.6-0.5,1.2-1,1.7c-0.2,0.2-0.3,0.4-0.5,0.6c0,0-0.2,0.2-0.4,0.2
				c-0.2,0-0.4-0.2-0.4-0.2c-0.1-0.2-0.3-0.4-0.5-0.6c-0.4-0.5-0.9-1.1-1-1.7c0-1.6,0-3.1,0-4.6c0-1.3,0-2.6,0-3.9l-1-0.2
				c-3.7-0.8-7.1-1.5-10.6-2.4c-5-1.3-9.8-3.7-15.1-7.5c-0.8-0.6-1-0.7-1.6-0.2c-7.6,5.9-16.6,9.3-26.9,10.3c0,1.8,0,3.7,0,5.5
				c0,5.6-0.1,11.3,0.2,17c0.4,7.7,3.7,14.9,9.9,22c4.4,5.1,9.7,9.4,16.4,13.1c0.5,0.3,1.7,0.3,2.1,0c4-2.9,8-5.9,11.9-8.8l1.4-1.1
				c0.3-0.3,0.7-0.6,1-1c0.2-0.2,0.3-0.3,0.5-0.5l0.2-0.3c0.5-0.5,1.1-1.1,1.8-1.1c0,0,0,0,0,0c0.4,0,0.8,0.2,1.2,0.6
				c0.4,0.4,0.7,0.9,0.7,1.4c0,0.8-0.6,1.4-1.2,2l-0.9,0.9c-1.4,1.4-2.9,2.9-4.5,4.1c-3.8,2.7-7.7,5.4-11.7,7.9
				c-0.5,0.3-1.2,0.5-1.9,0.5c-0.4,0-0.7-0.1-0.9-0.2c-13.9-7.4-22.9-16.9-27.8-29.2c-1.6-4-2.4-8.6-2.5-13.9c0-2.1,0-4.3,0-6.4
				c0-4.2,0-8.6,0-12.9c0-2.2,1-3.1,3.1-3.1c9.6-0.5,18.4-3.9,26.2-10.1c1.6-1.3,2.7-1.3,4.4,0c7.8,6.2,16.7,9.5,26.5,10
				c1,0.1,1.7,0.3,2.1,0.7c0.5,0.5,0.7,1.1,0.6,2.1C81.3,28.1,81.3,29.5,81.3,30.8z"/>
		</g>
		<g>
			<path d="M78.4,60.3c-0.8,1.8-1.6,3.7-2.5,5.4c-0.1,0.5-0.6,0.6-1,0.7c-0.1,0-0.3,0.1-0.4,0.1c0,0-0.3,0-0.4,0
				c-0.1-0.1-0.2-0.2-0.2-0.2c-0.1-0.2-0.2-0.4-0.3-0.6c-0.3-0.6-0.6-1.2-0.4-1.8c0.3-1.2,0.9-2.4,1.5-3.5l0.4-0.7
				c0.3-0.6,1.3-0.9,1.9-0.9c0.5,0,1.1,0.6,1.3,0.9C78.5,59.8,78.6,60.1,78.4,60.3z"/>
		</g>
		<g>
			<path d="M81.4,47.7c0,0.2,0,0.4,0,0.6l0,0.1c0,0.2,0,0.4-0.1,0.6c0,0.5-0.1,1.2-0.3,1.9c-0.2,0.5-0.6,0.9-1,1.1
				c-0.2,0.1-0.3,0.3-0.5,0.4c0,0-0.2,0.1-0.4,0.1c-0.1,0-0.4-0.1-0.4-0.1c-0.1-0.2-0.3-0.4-0.5-0.6c-0.4-0.4-0.8-0.8-0.8-1.3
				c-0.1-1.2,0-2.4,0.3-3.5c0.2-0.6,0.6-1.1,1-1.5c0.1-0.1,0.2-0.3,0.4-0.4c0,0,0.2-0.2,0.3-0.3c0.3,0,0.4,0.3,0.4,0.3
				c0.2,0.2,0.3,0.4,0.5,0.5c0.3,0.4,0.7,0.7,1,1.2C81.5,47.1,81.4,47.4,81.4,47.7z"/>
		</g>
	</g>
	<g>
		<path d="M65.2,43.9c-0.4-0.2-0.5-0.2-1-0.4c-1.2-0.5-2.3-1-3.6-1.1c-4-0.1-6.2-1.7-7.1-5.1c-0.3-1.1-0.8-1.9-1.3-2.6
			C52,34.3,51,33,50,33c-0.9,0-1.8,1-2.2,1.7c-0.9,1.4-1.7,3-2.5,4.9c-0.6,1.6-1.4,2.2-3.3,2.3c-1.9,0.1-3.8,0.5-5.6,0.9
			c-1.2,0.2-1.9,0.7-2.2,1.4c-0.3,0.7,0,1.6,0.8,2.5c1.4,1.5,2.9,3.1,4.6,4.5c0.9,0.8,1.2,1.6,0.9,2.8c-0.4,1.7-0.7,3.3-0.9,4.8
			l-0.2,1.1l0,0c-0.1,1.4,0.1,2.3,0.8,2.8c0.6,0.4,1.5,0.4,2.6,0l0.3-0.1c0.6-0.3,1.3-0.6,1.9-1c3.3-2.6,6.4-2.6,10,0
			c0.8,0.6,1.9,0.8,3,1c0.4,0.1,0.9,0.2,1.3,0.3c0,0,0.3,0,0.4-0.1c0.1-0.1,0.2-0.4,0.2-0.4c0-0.5,0.1-0.9,0.2-1.4
			c0.1-1.1,0.3-2.2,0-3.2c-1.3-4.1-0.4-7,2.8-9.2c0.9-0.6,1.4-1.6,2-2.6c0.3-0.5,0.4-0.7,0.6-1.1c0,0,0.2-0.6,0.1-0.8
			C65.6,44,65.2,43.9,65.2,43.9z M55.4,56c0.1,0.4,0.1,0.7,0.2,1.1c-2-1.5-3.9-2.2-5.8-2.2c-1.7,0-3.3,0.6-5,1.7
			c1.1-4.1,0-7.3-3.3-10c4.3-0.2,7.1-2.2,8.6-6.1c1.5,4,4.3,5.9,8.6,5.9h0.4c-0.3,0.3-0.6,0.5-0.9,0.8c-1.4,1.3-2.6,2.5-3.1,3.9
			C54.7,52.5,55,54.1,55.4,56z"/>
	</g>
</g>
</svg>
