<svg width="25" height="25" viewBox="0 0 25 25" fill="none" xmlns="http://www.w3.org/2000/svg">
<path d="M9.69609 24.6082C8.95809 24.6082 8.25031 24.2842 7.72847 23.7073C7.20662 23.1304 6.91345 22.348 6.91345 21.5322C6.91345 20.7164 7.20662 19.934 7.72847 19.3571C8.25031 18.7803 8.95809 18.4562 9.69609 18.4562C10.4341 18.4562 11.1419 18.7803 11.6637 19.3571C12.1856 19.934 12.4787 20.7164 12.4787 21.5322C12.4787 22.348 12.1856 23.1304 11.6637 23.7073C11.1419 24.2842 10.4341 24.6082 9.69609 24.6082ZM19.4353 24.6082C18.6973 24.6082 17.9895 24.2842 17.4677 23.7073C16.9459 23.1304 16.6527 22.348 16.6527 21.5322C16.6527 20.7164 16.9459 19.934 17.4677 19.3571C17.9895 18.7803 18.6973 18.4562 19.4353 18.4562C20.1733 18.4562 20.8811 18.7803 21.4029 19.3571C21.9248 19.934 22.218 20.7164 22.218 21.5322C22.218 22.348 21.9248 23.1304 21.4029 23.7073C20.8811 24.2842 20.1733 24.6082 19.4353 24.6082ZM1.2953 2.9576C0.947975 2.94522 0.618621 2.78399 0.376889 2.50801C0.135157 2.23204 0 1.86295 0 1.4788C0 1.09465 0.135157 0.725566 0.376889 0.449589C0.618621 0.173612 0.947975 0.0123838 1.2953 0L2.89671 0C4.15168 0 5.23691 0.962798 5.50961 2.31625L7.25293 10.9937C7.52563 12.3472 8.61086 13.31 9.86583 13.31H20.3174L22.3237 4.43564H9.32182C8.97777 4.41828 8.653 4.25498 8.41508 3.97969C8.17715 3.70441 8.04439 3.33833 8.04439 2.9576C8.04439 2.57687 8.17715 2.2108 8.41508 1.93551C8.653 1.66023 8.97777 1.49693 9.32182 1.47957H22.3237C22.7304 1.47944 23.1318 1.58182 23.4974 1.77892C23.863 1.97603 24.1831 2.26267 24.4334 2.61706C24.6837 2.97145 24.8576 3.38427 24.9419 3.82412C25.0262 4.26396 25.0187 4.71927 24.9199 5.15543L22.9136 14.0267C22.769 14.6668 22.4349 15.2351 21.9645 15.6411C21.494 16.0472 20.9143 16.2677 20.3174 16.2676H9.86583C8.64814 16.2678 7.46681 15.8088 6.51694 14.9666C5.56707 14.1243 4.90548 12.9491 4.64142 11.6351L2.89671 2.9576H1.2953Z" fill="#181725"/>
</svg>
