<svg width="218" height="50" viewBox="0 0 218 50" fill="none" xmlns="http://www.w3.org/2000/svg">
<path d="M204.643 17.9371C203.808 18.3071 202.911 18.5571 201.968 18.6701C202.941 18.0879 203.669 17.1715 204.016 16.0921C203.102 16.6351 202.101 17.0173 201.058 17.2221C200.356 16.4729 199.427 15.9764 198.414 15.8096C197.402 15.6427 196.362 15.8149 195.457 16.2993C194.552 16.7838 193.833 17.5534 193.41 18.4888C192.988 19.4241 192.886 20.4728 193.12 21.4721C191.268 21.3791 189.456 20.8976 187.801 20.059C186.147 19.2203 184.688 18.0432 183.518 16.6041C183.118 17.2941 182.888 18.0941 182.888 18.9461C182.888 19.7131 183.076 20.4683 183.438 21.1448C183.799 21.8213 184.322 22.3981 184.96 22.8241C184.22 22.8005 183.497 22.6007 182.85 22.2411V22.3011C182.85 23.3768 183.222 24.4195 183.903 25.2521C184.584 26.0847 185.533 26.656 186.587 26.8691C185.901 27.0548 185.181 27.0821 184.483 26.9491C184.781 27.8747 185.36 28.6841 186.14 29.264C186.921 29.8439 187.863 30.1653 188.835 30.1831C187.185 31.4785 185.147 32.1812 183.049 32.1781C182.677 32.1782 182.306 32.1565 181.937 32.1131C184.066 33.4823 186.545 34.2089 189.077 34.2061C197.647 34.2061 202.332 27.1081 202.332 20.9521C202.332 20.7521 202.327 20.5501 202.318 20.3501C203.229 19.6911 204.016 18.875 204.641 17.9401L204.643 17.9371Z" fill="#181725"/>
<rect x="168.5" y="0.5" width="49" height="49" rx="24.5" stroke="#C4C4C4"/>
<path d="M117.947 21.305C117.937 20.5476 117.795 19.7977 117.528 19.089C117.296 18.4911 116.943 17.9482 116.489 17.4948C116.036 17.0414 115.493 16.6876 114.895 16.456C114.195 16.1933 113.456 16.0513 112.709 16.036C111.747 15.993 111.442 15.981 109 15.981C106.558 15.981 106.245 15.981 105.29 16.036C104.543 16.0514 103.804 16.1934 103.105 16.456C102.507 16.6874 101.964 17.0412 101.511 17.4946C101.057 17.948 100.703 18.491 100.472 19.089C100.209 19.7881 100.067 20.5271 100.053 21.274C100.01 22.237 99.997 22.542 99.997 24.984C99.997 27.426 99.997 27.738 100.053 28.694C100.068 29.442 100.209 30.18 100.472 30.881C100.704 31.4787 101.058 32.0215 101.511 32.4747C101.965 32.9279 102.508 33.2815 103.106 33.513C103.803 33.7862 104.542 33.9383 105.291 33.963C106.254 34.006 106.559 34.019 109.001 34.019C111.443 34.019 111.756 34.019 112.711 33.963C113.458 33.9482 114.197 33.8066 114.897 33.544C115.495 33.312 116.038 32.9581 116.491 32.5048C116.944 32.0515 117.298 31.5086 117.53 30.911C117.793 30.211 117.934 29.473 117.949 28.724C117.992 27.762 118.005 27.457 118.005 25.014C118.003 22.572 118.003 22.262 117.947 21.305ZM108.994 29.602C106.44 29.602 104.371 27.533 104.371 24.979C104.371 22.425 106.44 20.356 108.994 20.356C110.22 20.356 111.396 20.843 112.263 21.71C113.13 22.577 113.617 23.7529 113.617 24.979C113.617 26.2051 113.13 27.3809 112.263 28.2479C111.396 29.1149 110.22 29.602 108.994 29.602ZM113.801 21.263C113.659 21.2631 113.519 21.2353 113.388 21.1812C113.257 21.127 113.139 21.0476 113.038 20.9475C112.938 20.8474 112.859 20.7285 112.805 20.5976C112.751 20.4668 112.723 20.3266 112.723 20.185C112.723 20.0435 112.751 19.9033 112.805 19.7726C112.859 19.6419 112.939 19.5231 113.039 19.423C113.139 19.323 113.257 19.2436 113.388 19.1895C113.519 19.1353 113.659 19.1075 113.801 19.1075C113.942 19.1075 114.082 19.1353 114.213 19.1895C114.344 19.2436 114.462 19.323 114.562 19.423C114.662 19.5231 114.742 19.6419 114.796 19.7726C114.85 19.9033 114.878 20.0435 114.878 20.185C114.878 20.781 114.396 21.263 113.801 21.263Z" fill="#181725"/>
<path d="M108.994 27.9821C110.653 27.9821 111.997 26.6376 111.997 24.9791C111.997 23.3206 110.653 21.9761 108.994 21.9761C107.336 21.9761 105.991 23.3206 105.991 24.9791C105.991 26.6376 107.336 27.9821 108.994 27.9821Z" fill="#181725"/>
<rect x="84.5" y="0.5" width="49" height="49" rx="24.5" stroke="#C4C4C4"/>
<g clip-path="url(#clip0_474_89)">
<path d="M21.9778 37V25.7385H19V21.6838H21.9778V18.2206C21.9778 15.4992 23.7368 13 27.7898 13C29.4309 13 30.6443 13.1573 30.6443 13.1573L30.5487 16.9437C30.5487 16.9437 29.3112 16.9317 27.9607 16.9317C26.4991 16.9317 26.2649 17.6052 26.2649 18.7232V21.6838H30.6649L30.4734 25.7385H26.2649V37H21.9778Z" fill="#181725"/>
</g>
<rect x="0.5" y="0.5" width="49" height="49" rx="24.5" stroke="#C4C4C4"/>
<defs>
<clipPath id="clip0_474_89">
<rect width="11.6649" height="24" fill="white" transform="translate(19 13)"/>
</clipPath>
</defs>
</svg>
