<?xml version="1.0" encoding="utf-8"?>
<!-- Generator: Adobe Illustrator 26.0.0, SVG Export Plug-In . SVG Version: 6.00 Build 0)  -->
<svg version="1.1" id="Layer_1" xmlns="http://www.w3.org/2000/svg" xmlns:xlink="http://www.w3.org/1999/xlink" x="0px" y="0px"
	 viewBox="0 0 100 100" style="enable-background:new 0 0 100 100;" xml:space="preserve">
<g>
	<g>
		<path d="M8.1,46.8v6.4h41.4v-6.4H8.1z M1,28.2v6.4h34.4v-6.4H1z"/>
	</g>
	<g>
		<path d="M98.7,48.7l-10.6-26c-0.2-0.6-0.6-1.1-1.1-1.4c-0.5-0.3-1.1-0.5-1.7-0.5H74.2v-7.9c0-0.8-0.3-1.7-0.9-2.3
			C72.8,10,72,9.7,71.2,9.7H15.1v6.4h53v47.4l-0.2,0.2c-1.6,0.9-2.9,2.2-4,3.7c-1.1,1.5-1.9,3.2-2.3,5.1l-0.1,0.4h-23l-0.1-0.4
			c-0.8-3.4-2.8-6.3-5.6-8.3c-2.7-1.9-6.1-2.8-9.4-2.4c-3.3,0.4-6.3,2.1-8.5,4.7c-2.2,2.6-3.4,6-3.4,9.5c0,3.5,1.2,6.9,3.4,9.5
			c2.2,2.6,5.2,4.3,8.5,4.7c3.3,0.4,6.6-0.4,9.4-2.4c2.8-2,4.7-4.9,5.6-8.3l0.1-0.4h23l0.1,0.4c0.7,3.1,2.5,5.8,4.8,7.8
			c2.4,1.9,5.3,3,8.3,3s6-1.1,8.3-3c2.4-1.9,4.1-4.7,4.8-7.8l0.1-0.4h8c0.8,0,1.6-0.3,2.1-0.9c0.6-0.6,0.9-1.4,0.9-2.3V50
			C99,49.6,98.9,49.1,98.7,48.7z M30.6,81.6c-1.4,1.5-3.3,2.3-5.4,2.3c-1.5,0-3-0.5-4.2-1.3c-1.2-0.9-2.2-2.1-2.8-3.6
			s-0.7-3-0.4-4.6c0.3-1.5,1-2.9,2.1-4.1c1.1-1.1,2.4-1.9,3.9-2.2c1.5-0.3,3-0.2,4.4,0.5c1.4,0.6,2.6,1.6,3.4,2.9
			c0.8,1.3,1.3,2.8,1.3,4.4C32.8,78.1,32,80.1,30.6,81.6z M74.2,27.2h9.1l8,19.6H74.2V27.2z M80.1,81.6c-1.4,1.5-3.3,2.3-5.4,2.3
			c-1.5,0-3-0.5-4.2-1.3c-1.2-0.9-2.2-2.1-2.8-3.6c-0.6-1.5-0.7-3-0.4-4.6c0.3-1.5,1-2.9,2.1-4.1c1.1-1.1,2.4-1.9,3.9-2.2
			c1.5-0.3,3-0.2,4.4,0.5c1.4,0.6,2.6,1.6,3.4,2.9c0.8,1.3,1.3,2.8,1.3,4.4C82.3,78.1,81.5,80.1,80.1,81.6z M92.9,72.8H88l-0.1-0.4
			c-0.7-3.1-2.5-5.8-4.8-7.7c-2.4-1.9-5.3-3-8.3-3h-0.5v-8.4h18.7V72.8z"/>
	</g>
</g>
</svg>
