<svg width="25" height="28" viewBox="0 0 25 28" fill="none" xmlns="http://www.w3.org/2000/svg">
<path d="M5.06001 15.5875C5.23604 15.5219 5.42535 15.4878 5.61673 15.4872C5.80812 15.4866 5.9977 15.5195 6.17428 15.584C6.35085 15.6484 6.51083 15.7431 6.64476 15.8625C6.77868 15.9819 6.88384 16.1235 6.95401 16.2789C7.02418 16.4344 7.05794 16.6005 7.0533 16.7676C7.04865 16.9346 7.0057 17.0991 6.92697 17.2514C6.84824 17.4037 6.73533 17.5407 6.59493 17.6542C6.45452 17.7678 6.28947 17.8556 6.10952 17.9125C5.15242 18.2417 4.33097 18.8148 3.75206 19.5572C3.17314 20.2996 2.86357 21.1769 2.86361 22.075V24.25C2.86361 24.5815 3.01446 24.8995 3.28298 25.1339C3.5515 25.3683 3.91568 25.5 4.29542 25.5H15.7499C16.1296 25.5 16.4938 25.3683 16.7623 25.1339C17.0308 24.8995 17.1817 24.5815 17.1817 24.25V22.1912C17.1818 21.2643 16.8593 20.3593 16.2569 19.596C15.6544 18.8328 14.8005 18.2474 13.8083 17.9175C13.6273 17.8626 13.4607 17.7766 13.3184 17.6645C13.1761 17.5524 13.0611 17.4165 12.9801 17.2648C12.8991 17.1132 12.8538 16.9489 12.8469 16.7817C12.84 16.6145 12.8716 16.4477 12.9398 16.2914C13.0081 16.135 13.1116 15.9922 13.2443 15.8715C13.3769 15.7507 13.536 15.6544 13.7121 15.5883C13.8881 15.5222 14.0776 15.4876 14.2693 15.4866C14.4609 15.4856 14.6508 15.5182 14.8278 15.5825C16.3621 16.0927 17.6827 16.9979 18.6144 18.1781C19.5462 19.3583 20.0452 20.7579 20.0453 22.1912V24.25C20.0453 25.2446 19.5927 26.1984 18.7872 26.9017C17.9817 27.6049 16.8891 28 15.7499 28H4.29542C3.1562 28 2.06365 27.6049 1.2581 26.9017C0.452552 26.1984 0 25.2446 0 24.25L0 22.075C0.000197018 20.6752 0.482915 19.3078 1.38536 18.1508C2.28781 16.9938 3.56821 16.1006 5.06001 15.5875ZM10.0226 3C11.5416 3 12.9983 3.52678 14.0724 4.46447C15.1465 5.40215 15.7499 6.67392 15.7499 8V10.5C15.7499 11.8261 15.1465 13.0979 14.0724 14.0355C12.9983 14.9732 11.5416 15.5 10.0226 15.5C8.50369 15.5 7.04695 14.9732 5.97289 14.0355C4.89882 13.0979 4.29542 11.8261 4.29542 10.5V8C4.29542 6.67392 4.89882 5.40215 5.97289 4.46447C7.04695 3.52678 8.50369 3 10.0226 3ZM10.0226 5.5C9.26317 5.5 8.5348 5.76339 7.99777 6.23223C7.46074 6.70107 7.15904 7.33696 7.15904 8V10.5C7.15904 11.163 7.46074 11.7989 7.99777 12.2678C8.5348 12.7366 9.26317 13 10.0226 13C10.7821 13 11.5105 12.7366 12.0475 12.2678C12.5846 11.7989 12.8863 11.163 12.8863 10.5V8C12.8863 7.33696 12.5846 6.70107 12.0475 6.23223C11.5105 5.76339 10.7821 5.5 10.0226 5.5Z" fill="#181725"/>
<rect x="15.5" y="0.5" width="9" height="9" rx="4.5" fill="#DA0F0F" stroke="white"/>
</svg>
