<svg width="127" height="30" viewBox="0 0 127 30" fill="none" xmlns="http://www.w3.org/2000/svg">
<path fill-rule="evenodd" clip-rule="evenodd" d="M17.544 2.33313C17.6728 1.18263 16.8572 0.143746 15.7067 0.0149587C14.5562 -0.122414 13.5173 0.701824 13.3885 1.85232C13.2339 3.16596 13.4486 4.73716 13.7233 6.3513C14.4875 6.58311 15.2258 6.91796 15.9127 7.31291C16.6511 5.56999 17.3723 3.84423 17.544 2.33313ZM25.6233 7.38159C25.1682 6.31695 23.9319 5.83615 22.8672 6.29119C21.4677 6.90079 20.0167 8.09422 18.5571 9.32199C19.1066 9.8629 19.6218 10.4725 20.0597 11.1336C21.7167 10.9275 23.3051 10.6785 24.5329 10.1462C25.5975 9.67401 26.0869 8.43765 25.6233 7.38159ZM22.0945 1.76647C21.1672 1.0796 19.8536 1.26849 19.1667 2.19576C18.1193 3.60383 17.4152 5.70736 16.6511 7.75937C16.9087 7.93109 17.1491 8.1028 17.3809 8.2831C17.5526 8.42048 17.7329 8.56644 17.9132 8.7124C19.6647 7.39018 21.4849 6.10231 22.5324 4.69423C23.2192 3.76696 23.0218 2.45333 22.0945 1.76647Z" fill="#53B175"/>
<path d="M18.1106 18.5775C17.4666 19.273 16.7798 19.9169 16.05 20.5437C15.0282 21.428 13.9894 22.2866 12.9333 23.1108C11.8 22.4154 10.9843 22.0633 10.847 22.2437C10.7268 22.4068 11.199 23.0078 12.049 23.7891C9.19848 25.9098 6.18485 27.7815 2.948 29.3184C2.44143 29.5588 1.90911 29.7305 1.38538 29.9194C1.248 29.9709 1.10205 29.9709 1.04194 29.9795C0.217706 30.0739 -0.0312833 29.8507 0.00306 29.0951C0.10609 26.7426 0.835885 24.5361 1.59144 22.3381C1.7975 21.7371 2.01214 21.1361 2.23537 20.5351C3.37729 21.2305 4.19294 21.5911 4.33031 21.4108C4.47627 21.2134 3.78941 20.4235 2.63891 19.4361C3.46315 17.3068 4.38183 15.2119 5.46364 13.2028C7.62727 14.8083 9.55049 15.8644 9.76514 15.5725C9.97978 15.2805 8.39141 13.7265 6.20202 12.1038L6.10758 12.0351C6.48536 11.3912 6.8803 10.7472 7.30101 10.1205C7.82474 9.33057 8.46868 8.60937 9.10403 7.90533C9.95403 6.96947 11.053 6.6518 12.2808 6.92654C16.2131 7.8023 18.9434 10.0604 20.2313 13.9326C20.4888 14.7225 20.257 15.4952 19.8535 16.2078C19.5787 16.6886 19.2782 17.1437 18.9434 17.573C16.8656 16.0533 15.0626 15.0745 14.8565 15.3492C14.6591 15.624 16.0929 17.0406 18.1106 18.5775Z" fill="#53B175"/>
<path d="M43.4385 4.57837C40.7168 4.57837 38.9481 5.66877 37.8749 7.73795H37.8148V6.45008C37.8148 5.52281 37.0593 4.77584 36.132 4.77584C35.2047 4.77584 34.4578 5.52281 34.4578 6.45008V20.694C34.4578 21.6212 35.2047 22.3768 36.132 22.3768H36.2951C37.2224 22.3768 37.9779 21.6212 37.9779 20.694V12.2112C37.9779 9.43794 39.5663 7.59199 42.2193 7.59199C44.7951 7.59199 46.0315 9.08593 46.0315 11.7561V20.694C46.0315 21.6212 46.7784 22.3768 47.7057 22.3768H47.8688C48.7961 22.3768 49.5431 21.6212 49.5431 20.694V11.095C49.5431 7.0425 47.3279 4.57837 43.4385 4.57837Z" fill="#53B175"/>
<path d="M60.4042 4.54395C55.4845 4.54395 52.2734 8.13282 52.2734 13.6363C52.2734 19.1484 55.4502 22.5828 60.5502 22.5828C63.7097 22.5828 66.3198 21.1833 67.4961 19.0025C67.934 18.204 67.333 17.2166 66.4229 17.2166H65.5299C65.0835 17.2166 64.6971 17.4742 64.4653 17.8606C63.787 19.0282 62.3618 19.7323 60.6189 19.7323C57.734 19.7323 55.8194 17.7232 55.8194 14.6752V14.4692H67.0668C67.7365 14.4692 68.286 13.9197 68.286 13.25V13.2328C68.286 7.901 65.238 4.54395 60.4042 4.54395ZM55.8366 11.9707C56.034 9.26615 57.8628 7.41161 60.3956 7.41161C62.9542 7.41161 64.6885 9.23181 64.7658 11.9707H55.8366Z" fill="#53B175"/>
<path d="M84.6594 16.4611H83.7236C83.217 16.4611 82.7791 16.7787 82.5902 17.251C81.9806 18.805 80.5897 19.6378 78.615 19.6378C75.7903 19.6378 73.8842 17.3626 73.8842 13.5762C73.8842 9.87574 75.7645 7.51464 78.5978 7.51464C80.6412 7.51464 82.0064 8.52777 82.5645 9.97019C82.7534 10.451 83.1912 10.7858 83.715 10.7858H84.6508C85.4665 10.7858 86.0761 9.98736 85.8099 9.21463C84.9084 6.56161 82.3327 4.54395 78.5635 4.54395C73.5923 4.54395 70.3125 8.09848 70.3125 13.5762C70.3125 19.1484 73.6009 22.5828 78.5978 22.5828C82.1781 22.5828 84.8397 20.8313 85.8185 18.058C86.0932 17.2767 85.4922 16.4611 84.6594 16.4611Z" fill="#53B175"/>
<path d="M95.2023 19.612C95.1422 19.6034 95.0735 19.5948 95.0134 19.5948C93.8543 19.4574 93.3134 18.7362 93.3134 17.3797V7.54891H95.2967C96.0695 7.54891 96.6877 6.92215 96.6877 6.15801C96.6877 5.39387 96.0695 4.77569 95.2967 4.77569H93.3134V2.56913C93.3134 2.08833 93.1159 1.65045 92.7983 1.33278C92.4806 1.0151 92.0513 0.817627 91.5619 0.817627C90.6003 0.817627 89.819 1.60752 89.819 2.56913V4.77569H88.7715C88.0074 4.77569 87.3806 5.39387 87.3806 6.15801C87.3806 6.92215 88.0074 7.54891 88.7715 7.54891H89.819V17.7403C89.819 21.1403 91.1756 22.4882 94.6957 22.4882C94.7043 22.4882 94.7129 22.4882 94.7129 22.4882C95.1164 22.4882 95.4856 22.368 95.7947 22.1534C95.8033 22.1534 95.8119 22.1448 95.8119 22.1448C96.1725 21.8872 96.4129 21.4665 96.4129 20.9943C96.4129 20.2903 95.8892 19.6979 95.2023 19.612Z" fill="#53B175"/>
<path d="M106.622 4.54395C103.874 4.54395 101.608 5.6601 100.449 7.38585C100.26 7.67777 100.165 7.99545 100.165 8.30454C100.165 9.16312 100.852 9.9616 101.822 9.9616C102.389 9.9616 102.93 9.6611 103.196 9.16312C103.763 8.09848 104.973 7.44595 106.527 7.44595C108.88 7.44595 110.219 8.55352 110.219 10.5626V10.7773C110.219 11.4212 109.721 11.9535 109.077 11.9879L105.471 12.1939C101.127 12.4687 98.7485 14.2545 98.7485 17.3368C98.7485 20.4792 101.178 22.5484 104.699 22.5484C107.094 22.5484 109.283 21.355 110.254 19.4403H110.331V20.6939C110.331 21.1575 110.52 21.5782 110.82 21.8873C111.129 22.1878 111.55 22.3767 112.014 22.3767C112.941 22.3767 113.688 21.6211 113.688 20.6939V10.305C113.688 6.81919 110.915 4.54395 106.622 4.54395ZM110.219 15.7656C110.219 18.0752 108.244 19.7494 105.634 19.7494C103.608 19.7494 102.294 18.7792 102.294 17.2681C102.294 15.7141 103.548 14.8212 105.943 14.6752L110.219 14.3833V15.7656Z" fill="#53B175"/>
<path d="M124.892 4.59521C122.815 4.59521 121.201 5.78006 120.642 7.73763H120.582V6.44975C120.582 5.52248 119.827 4.77552 118.908 4.77552C117.981 4.77552 117.225 5.52248 117.225 6.44975V20.6164C117.225 21.0972 117.423 21.5436 117.74 21.8613C118.058 22.179 118.496 22.3765 118.985 22.3765C119.956 22.3765 120.746 21.5866 120.746 20.6164V11.876C120.746 9.39469 122.205 7.78914 124.523 7.78914C124.618 7.78914 124.721 7.78914 124.815 7.79773C125.536 7.82348 126.12 7.23106 126.12 6.50985V5.83157C126.12 5.15329 125.571 4.59521 124.892 4.59521Z" fill="#53B175"/>
<path d="M96.413 20.9945C96.413 21.4667 96.1726 21.8874 95.812 22.145C95.812 22.145 95.8034 22.1535 95.7949 22.1535C95.5716 22.3081 95.3055 22.3939 95.0135 22.3939C94.2322 22.3939 93.6055 21.7672 93.6055 20.9945C93.6055 20.2217 94.2322 19.595 95.0135 19.595C95.0737 19.595 95.1423 19.6036 95.2024 19.6121C95.8893 19.698 96.413 20.2904 96.413 20.9945Z" fill="#53B175"/>
</svg>
