<svg width="18" height="18" viewBox="0 0 18 18" fill="none" xmlns="http://www.w3.org/2000/svg">
<path d="M17.9681 8.6123C17.9681 8.98813 17.824 9.35144 17.5546 9.61452C17.2914 9.88386 16.928 10.0342 16.552 10.0342H10.8874V15.6967C10.8874 16.0725 10.737 16.4358 10.4676 16.6989C10.2044 16.962 9.84724 17.1123 9.47127 17.1123C9.0953 17.1123 8.73187 16.962 8.46869 16.6989C8.19925 16.4358 8.04886 16.0725 8.04886 15.6967V10.0342H2.38428C2.00832 10.0342 1.64488 9.88386 1.3817 9.61452C1.11853 9.35144 0.96814 8.98813 0.96814 8.6123C0.96814 8.23647 1.11853 7.87944 1.3817 7.61009C1.64488 7.34701 2.00832 7.19668 2.38428 7.19668H8.04886V1.53419C8.04886 1.15836 8.19925 0.795061 8.46869 0.53198C8.73187 0.262636 9.0953 0.112305 9.47127 0.112305C9.84724 0.112305 10.2044 0.262636 10.4676 0.53198C10.737 0.795061 10.8874 1.15836 10.8874 1.53419V7.19668H16.552C16.928 7.19668 17.2914 7.34701 17.5546 7.61009C17.824 7.87944 17.9681 8.23647 17.9681 8.6123Z" fill="white"/>
</svg>
