<?xml version="1.0" encoding="utf-8"?>
<!-- Generator: Adobe Illustrator 26.0.0, SVG Export Plug-In . SVG Version: 6.00 Build 0)  -->
<svg version="1.1" id="Layer_1" xmlns="http://www.w3.org/2000/svg" xmlns:xlink="http://www.w3.org/1999/xlink" x="0px" y="0px"
	 viewBox="0 0 100 100" style="enable-background:new 0 0 100 100;" xml:space="preserve">
<g>
	<g>
		<path d="M98.9,52.1c0-3.1-1.3-5.8-3.5-7.1c-2.3-1.3-2.5-3.3-2.7-5.5c0-0.4,0-0.8-0.1-1.2c-3.7-22.9-24.8-38.7-47.8-36
			C24.5,4.7,8.3,21.7,7.1,41.8c-0.1,0.9-0.4,1.4-1.1,1.9c-3.1,2-4.8,4.8-4.9,8.3c-0.1,4.1-0.2,8.4,0,12.5c0.1,4.7,3.1,8.4,7.8,9.7
			c2.5,0.7,4.9,0.3,6.7-1c1.8-1.4,2.8-3.5,2.8-6.1V51.1c0-5.4-0.9-6.8-5.7-8.9c0.5-9.4,5.3-18.9,12.8-25.5
			c7.8-6.8,17.9-9.9,28.4-8.9c19.9,1.9,33.2,19.3,33.3,34.4c-4.1,1.4-5.5,3.5-5.5,8v15.4c0,5.2,1,6.8,5.8,8.7v4.6
			c-0.2,4.6-3.8,8.3-8.3,8.5c-2.2,0.1-4.4,0.1-6.6,0c-0.3,0-0.9-0.4-1.1-0.7c-1.6-2.6-4-3.9-7-3.9h-6.2c-4.7,0.1-7.9,3.1-8.1,7.4
			c-0.1,4.4,3,7.6,7.8,7.8c0.7,0,1.5,0,2.2,0c0.7,0,1.5,0,2.2,0c0.7,0,1.5,0,2.2,0c2-0.1,4.5-0.5,5.7-2.6c1.3-2.4,3.3-2.4,5.6-2.3
			c1.2,0.1,2.4,0.1,3.6,0c6.6-0.4,12-5,13.3-11.4c0.4-2,0.4-4,0.4-6v-1c0-1,0.3-1.5,1-1.9c3.1-1.9,4.8-4.7,4.9-8.2
			C99,60.4,99,56.3,98.9,52.1z M12.8,49.5v8.7c0,2.9,0,5.8-0.1,8.5c0,0.8-0.2,1.4-0.5,1.7c-0.3,0.3-0.9,0.3-1.7,0.2
			c-2.1-0.4-3.7-2.2-3.8-4.2c-0.1-4.1-0.1-8.2,0-12.3c0.1-2.2,1.9-4,4.1-4.3c0.2,0,0.3,0,0.5,0c0.5,0,0.8,0.1,1.1,0.3
			C12.6,48.3,12.8,48.8,12.8,49.5z M66.8,90.4c0,1.2-0.7,1.8-1.9,1.8c-2.4,0.1-4.8,0.1-7.1,0c-0.7,0-1.9-0.4-1.9-1.8
			c0-1.3,0.6-1.9,2-1.9c0.4,0,0.7,0,1.1,0c0.4,0,0.8,0,1.2,0c0.4,0,0.8,0,1.2,0h3.5C66.1,88.5,66.8,89.1,66.8,90.4z M93.3,64.7
			c-0.1,2.1-2,3.9-4.2,4.1c-0.7,0-1.1-0.1-1.4-0.3c-0.3-0.2-0.4-0.7-0.4-1.2v-8.9c0-0.9,0-1.9,0-2.8c0-1.8,0-3.7,0-5.5
			c0-0.9,0.2-1.4,0.5-1.7c0.2-0.2,0.5-0.3,0.9-0.3c0.3,0,0.5,0,0.9,0.1c2.1,0.4,3.7,2.1,3.8,4.1C93.4,56.3,93.4,60.5,93.3,64.7z"/>
	</g>
	<g>
		<path d="M64.6,24.6H50.2c-5.2,0-10.4-0.1-15.6-0.2c-5.4,0.1-9.8,4.4-9.9,9.8c-0.1,7-0.1,14.1,0,21.1c0.1,4.6,2.6,8,6.6,8.9
			c3.3,0.8,3.7,2.2,3.4,5.3c-0.2,2.5,1,4.4,3.2,5.3c0.7,0.3,1.4,0.4,2,0.4c1.4,0,2.7-0.6,3.9-1.8c0.8-0.8,1.6-1.5,2.3-2.3
			c1.6-1.6,3.2-3.2,4.8-4.8c0.7-0.8,1.5-1.1,2.8-1.1c3.7,0.1,7.3,0.1,10.9,0c6.4-0.1,10.6-4.3,10.6-10.6V35.3
			C75.2,28.9,70.9,24.6,64.6,24.6z M69.7,54.8c0,2.9-1.8,4.8-4.8,4.8c-4.1,0.1-8.2,0.1-12.3,0c-1.9-0.1-3.4,0.5-4.7,1.9
			c-1.6,1.7-3.2,3.3-4.8,4.9c-1,1-1.9,1.9-2.8,2.9v-6c0-2.8-1-3.8-3.9-3.8h-1.7c-2.6-0.1-4.4-1.9-4.4-4.5c-0.1-6.8-0.1-13.5,0-20.3
			c0-2.6,1.9-4.5,4.6-4.5h30.2c2.7,0,4.6,1.9,4.6,4.7V54.8z"/>
	</g>
	<g>
		<path d="M54,45.2L54,45.2c0,2.2-1.8,4-3.9,4c-2.2,0-4-1.8-4-3.9c0-2.2,1.8-4,3.9-4C52,41.3,53.8,43.1,54,45.2z"/>
	</g>
	<g>
		<path d="M65.2,45.2c0,2.1-1.8,4-3.9,4c-2.2,0-4-1.8-4-3.9c0-0.9,0.3-1.8,1-2.6c0.8-0.8,1.8-1.4,2.9-1.4h0
			C63.4,41.3,65.2,43.1,65.2,45.2z"/>
	</g>
	<g>
		<path d="M42.7,45.3c0,1-0.5,2.1-1.3,2.8c-0.7,0.7-1.7,1.1-2.6,1.1h-0.2c-1,0-2-0.5-2.7-1.2c-0.7-0.7-1.1-1.7-1.1-2.8
			c0-2.1,1.8-3.9,3.9-3.9C40.8,41.3,42.7,43.2,42.7,45.3z"/>
	</g>
</g>
</svg>
