<svg width="390" height="100" viewBox="0 0 390 100" fill="none" xmlns="http://www.w3.org/2000/svg">
<path fill-rule="evenodd" clip-rule="evenodd" d="M54.2182 7.21037C54.6162 3.65483 52.0955 0.444237 48.54 0.0462288C44.9844 -0.378313 41.7738 2.16894 41.3758 5.72447C40.8982 9.78415 41.5615 14.6398 42.4106 19.6282C44.7721 20.3446 47.0541 21.3794 49.1768 22.6C51.4587 17.2136 53.6875 11.8803 54.2182 7.21037ZM79.1865 22.8123C77.7803 19.5221 73.9594 18.0362 70.6692 19.4425C66.3442 21.3264 61.8599 25.0146 57.3492 28.8089C59.0474 30.4806 60.6394 32.3645 61.9926 34.4076C67.1136 33.7708 72.0224 33.0013 75.8167 31.3562C79.1069 29.8968 80.6194 26.0759 79.1865 22.8123ZM68.2811 5.45913C65.4155 3.33643 61.3558 3.92017 59.2331 6.78583C55.996 11.1374 53.8202 17.6382 51.4587 23.9798C52.2547 24.5104 52.9976 25.0411 53.714 25.5983C54.2447 26.0229 54.8019 26.4739 55.3591 26.925C60.7721 22.8388 66.3972 18.8587 69.6344 14.5072C71.7571 11.6415 71.1468 7.58184 68.2811 5.45913Z" fill="#53B175"/>
<path d="M55.9693 57.4126C53.9793 59.5618 51.8566 61.5519 49.6012 63.4889C46.4437 66.2218 43.2331 68.8752 39.9694 71.4225C36.467 69.2732 33.9463 68.1853 33.5217 68.7426C33.1502 69.2467 34.6096 71.1041 37.2364 73.5186C28.4272 80.0725 19.1138 85.8569 9.11057 90.6064C7.54507 91.3494 5.89997 91.8801 4.28141 92.4638C3.85686 92.623 3.40579 92.623 3.22005 92.6495C0.672803 92.9414 -0.0966787 92.2515 0.0094567 89.9166C0.327863 82.6463 2.58324 75.8271 4.91822 69.0344C5.55503 67.1771 6.21838 65.3197 6.90826 63.4623C10.4373 65.6116 12.958 66.726 13.3825 66.1688C13.8336 65.5585 11.7109 63.1174 8.15535 60.066C10.7026 53.4856 13.5417 47.0113 16.885 40.8024C23.5715 45.7642 29.5151 49.0279 30.1784 48.1257C30.8418 47.2236 25.933 42.421 19.1669 37.4061L18.875 37.1938C20.0425 35.2038 21.2631 33.2137 22.5632 31.2768C24.1818 28.8356 26.1718 26.6068 28.1353 24.431C30.7622 21.5388 34.1585 20.5571 37.9529 21.4062C50.1054 24.1126 58.5431 31.091 62.5232 43.0578C63.3192 45.4989 62.6028 47.8869 61.3557 50.0893C60.5066 51.5751 59.5779 52.9814 58.5431 54.3081C52.1219 49.6116 46.5498 46.5868 45.913 47.4359C45.3027 48.285 49.7339 52.663 55.9693 57.4126Z" fill="#53B175"/>
<path d="M134.244 14.1484C125.833 14.1484 120.367 17.5182 117.05 23.9129H116.864V19.9328C116.864 17.0672 114.53 14.7587 111.664 14.7587C108.798 14.7587 106.49 17.0672 106.49 19.9328V63.9525C106.49 66.8181 108.798 69.1531 111.664 69.1531H112.168C115.034 69.1531 117.369 66.8181 117.369 63.9525V37.737C117.369 29.1666 122.277 23.4618 130.476 23.4618C138.436 23.4618 142.257 28.0787 142.257 36.3307V63.9525C142.257 66.8181 144.566 69.1531 147.431 69.1531H147.936C150.801 69.1531 153.11 66.8181 153.11 63.9525V34.2876C153.11 21.7637 146.264 14.1484 134.244 14.1484Z" fill="#53B175"/>
<path d="M186.675 14.0425C171.471 14.0425 161.547 25.1336 161.547 42.1418C161.547 59.1766 171.365 69.7901 187.126 69.7901C196.89 69.7901 204.957 65.4651 208.592 58.7255C209.945 56.2578 208.088 53.2064 205.275 53.2064H202.516C201.136 53.2064 199.942 54.0025 199.225 55.1965C197.129 58.8051 192.725 60.9809 187.338 60.9809C178.423 60.9809 172.506 54.7719 172.506 45.3524V44.7156H207.265C209.335 44.7156 211.033 43.0174 211.033 40.9478V40.8947C211.033 24.4172 201.613 14.0425 186.675 14.0425ZM172.559 36.9943C173.169 28.6361 178.821 22.9048 186.648 22.9048C194.555 22.9048 199.915 28.53 200.154 36.9943H172.559Z" fill="#53B175"/>
<path d="M261.633 50.8715H258.741C257.176 50.8715 255.822 51.8532 255.239 53.3126C253.355 58.1152 249.056 60.689 242.953 60.689C234.224 60.689 228.333 53.6575 228.333 41.9561C228.333 30.52 234.144 23.2232 242.9 23.2232C249.215 23.2232 253.434 26.3542 255.159 30.8119C255.743 32.2978 257.096 33.3326 258.715 33.3326H261.607C264.127 33.3326 266.011 30.8649 265.189 28.4769C262.403 20.2779 254.443 14.0425 242.794 14.0425C227.431 14.0425 217.295 25.0275 217.295 41.9561C217.295 59.1766 227.458 69.7901 242.9 69.7901C253.965 69.7901 262.19 64.3772 265.215 55.8068C266.064 53.3922 264.207 50.8715 261.633 50.8715Z" fill="#53B175"/>
<path d="M294.217 60.6095C294.031 60.5829 293.819 60.5564 293.633 60.5564C290.051 60.1318 288.379 57.903 288.379 53.7107V23.3294H294.509C296.897 23.3294 298.807 21.3924 298.807 19.0309C298.807 16.6694 296.897 14.759 294.509 14.759H288.379V7.93976C288.379 6.45387 287.769 5.10064 286.787 4.11889C285.805 3.13713 284.479 2.52686 282.966 2.52686C279.995 2.52686 277.58 4.96797 277.58 7.93976V14.759H274.343C271.981 14.759 270.044 16.6694 270.044 19.0309C270.044 21.3924 271.981 23.3294 274.343 23.3294H277.58V54.8251C277.58 65.3325 281.772 69.4983 292.651 69.4983C292.678 69.4983 292.704 69.4983 292.704 69.4983C293.951 69.4983 295.092 69.1268 296.047 68.4635C296.074 68.4635 296.101 68.4369 296.101 68.4369C297.215 67.6409 297.958 66.3408 297.958 64.8814C297.958 62.7056 296.339 60.8748 294.217 60.6095Z" fill="#53B175"/>
<path d="M329.507 14.0425C321.016 14.0425 314.011 17.4919 310.429 22.8252C309.845 23.7273 309.553 24.7091 309.553 25.6643C309.553 28.3177 311.676 30.7853 314.674 30.7853C316.426 30.7853 318.097 29.8567 318.92 28.3177C320.671 25.0275 324.412 23.0109 329.215 23.0109C336.485 23.0109 340.624 26.4338 340.624 32.6427V33.3061C340.624 35.2961 339.085 36.9412 337.095 37.0473L325.951 37.6841C312.525 38.5332 305.175 44.0523 305.175 53.5779C305.175 63.2893 312.684 69.684 323.563 69.684C330.966 69.684 337.732 65.9958 340.731 60.0787H340.969V63.9527C340.969 65.3855 341.553 66.6856 342.482 67.6409C343.437 68.5695 344.737 69.1533 346.17 69.1533C349.036 69.1533 351.344 66.8183 351.344 63.9527V31.8467C351.344 21.074 342.774 14.0425 329.507 14.0425ZM340.624 48.7222C340.624 55.8598 334.522 61.0339 326.455 61.0339C320.193 61.0339 316.134 58.0356 316.134 53.3656C316.134 48.563 320.008 45.8035 327.411 45.3524L340.624 44.4503V48.7222Z" fill="#53B175"/>
<path d="M385.971 14.2017C379.55 14.2017 374.561 17.8633 372.837 23.913H372.651V19.933C372.651 17.0673 370.316 14.7589 367.477 14.7589C364.611 14.7589 362.276 17.0673 362.276 19.933V63.7138C362.276 65.1997 362.886 66.5795 363.868 67.5612C364.85 68.543 366.203 69.1533 367.716 69.1533C370.714 69.1533 373.155 66.7121 373.155 63.7138V36.7024C373.155 29.0341 377.666 24.0723 384.83 24.0723C385.122 24.0723 385.44 24.0723 385.732 24.0988C387.961 24.1784 389.765 22.3476 389.765 20.1187V18.0225C389.765 15.9264 388.067 14.2017 385.971 14.2017Z" fill="#53B175"/>
<path d="M297.958 64.8817C297.958 66.341 297.215 67.6412 296.101 68.4372C296.101 68.4372 296.074 68.4637 296.048 68.4637C295.358 68.9413 294.535 69.2067 293.633 69.2067C291.218 69.2067 289.281 67.2697 289.281 64.8817C289.281 62.4936 291.218 60.5566 293.633 60.5566C293.819 60.5566 294.031 60.5832 294.217 60.6097C296.339 60.875 297.958 62.7059 297.958 64.8817Z" fill="#53B175"/>
<path d="M158.27 85.8826C157.551 86.592 156.679 86.9466 155.652 86.9466C154.625 86.9466 153.753 86.592 153.034 85.8826C152.325 85.1733 151.97 84.3006 151.97 83.2646C151.97 82.2286 152.325 81.356 153.034 80.6466C153.753 79.9373 154.625 79.5826 155.652 79.5826C156.679 79.5826 157.551 79.9373 158.27 80.6466C158.989 81.356 159.348 82.2286 159.348 83.2646C159.348 84.3006 158.989 85.1733 158.27 85.8826ZM155.652 85.7566C156.352 85.7566 156.94 85.5186 157.416 85.0426C157.892 84.5666 158.13 83.974 158.13 83.2646C158.13 82.5553 157.892 81.9626 157.416 81.4866C156.94 81.0106 156.352 80.7726 155.652 80.7726C154.961 80.7726 154.378 81.0106 153.902 81.4866C153.426 81.9626 153.188 82.5553 153.188 83.2646C153.188 83.974 153.426 84.5666 153.902 85.0426C154.378 85.5186 154.961 85.7566 155.652 85.7566ZM169.77 79.5826C170.591 79.5826 171.249 79.844 171.744 80.3666C172.238 80.88 172.486 81.58 172.486 82.4666V86.7646H171.268V82.5366C171.268 81.9673 171.114 81.5286 170.806 81.2206C170.498 80.9033 170.073 80.7446 169.532 80.7446C168.925 80.7446 168.435 80.936 168.062 81.3186C167.688 81.692 167.502 82.2706 167.502 83.0546V86.7646H166.284V79.7646H167.502V80.7726C167.996 79.9793 168.752 79.5826 169.77 79.5826ZM179.686 86.7646V76.5446H180.904V86.7646H179.686ZM188.878 78.4906C188.645 78.4906 188.449 78.4113 188.29 78.2526C188.132 78.094 188.052 77.9026 188.052 77.6786C188.052 77.4546 188.132 77.2633 188.29 77.1046C188.449 76.9366 188.645 76.8526 188.878 76.8526C189.102 76.8526 189.294 76.9366 189.452 77.1046C189.611 77.2633 189.69 77.4546 189.69 77.6786C189.69 77.9026 189.611 78.094 189.452 78.2526C189.294 78.4113 189.102 78.4906 188.878 78.4906ZM188.262 86.7646V79.7646H189.48V86.7646H188.262ZM200.324 79.5826C201.146 79.5826 201.804 79.844 202.298 80.3666C202.793 80.88 203.04 81.58 203.04 82.4666V86.7646H201.822V82.5366C201.822 81.9673 201.668 81.5286 201.36 81.2206C201.052 80.9033 200.628 80.7446 200.086 80.7446C199.48 80.7446 198.99 80.936 198.616 81.3186C198.243 81.692 198.056 82.2706 198.056 83.0546V86.7646H196.838V79.7646H198.056V80.7726C198.551 79.9793 199.307 79.5826 200.324 79.5826ZM211.095 83.8246C211.216 84.45 211.501 84.9353 211.949 85.2806C212.406 85.626 212.966 85.7986 213.629 85.7986C214.553 85.7986 215.225 85.458 215.645 84.7766L216.681 85.3646C215.999 86.4193 214.973 86.9466 213.601 86.9466C212.49 86.9466 211.585 86.6013 210.885 85.9106C210.194 85.2106 209.849 84.3286 209.849 83.2646C209.849 82.21 210.189 81.3326 210.871 80.6326C211.552 79.9326 212.434 79.5826 213.517 79.5826C214.543 79.5826 215.379 79.9466 216.023 80.6746C216.676 81.3933 217.003 82.2613 217.003 83.2786C217.003 83.456 216.989 83.638 216.961 83.8246H211.095ZM213.517 80.7306C212.863 80.7306 212.322 80.9173 211.893 81.2906C211.463 81.6546 211.197 82.1446 211.095 82.7606H215.771C215.668 82.098 215.407 81.594 214.987 81.2486C214.567 80.9033 214.077 80.7306 213.517 80.7306ZM238.713 79.7646H239.917V86.4706C239.917 87.5066 239.567 88.3093 238.867 88.8786C238.167 89.4573 237.327 89.7466 236.347 89.7466C235.563 89.7466 234.886 89.5973 234.317 89.2986C233.748 89.0093 233.318 88.5893 233.029 88.0386L234.093 87.4366C234.476 88.2206 235.236 88.6126 236.375 88.6126C237.103 88.6126 237.672 88.4213 238.083 88.0386C238.503 87.656 238.713 87.1333 238.713 86.4706V85.4766C238.097 86.41 237.22 86.8766 236.081 86.8766C235.082 86.8766 234.238 86.522 233.547 85.8126C232.856 85.1033 232.511 84.24 232.511 83.2226C232.511 82.2053 232.856 81.3466 233.547 80.6466C234.238 79.9373 235.082 79.5826 236.081 79.5826C237.229 79.5826 238.106 80.0446 238.713 80.9686V79.7646ZM234.443 85.0006C234.919 85.4766 235.512 85.7146 236.221 85.7146C236.93 85.7146 237.523 85.4766 237.999 85.0006C238.475 84.5246 238.713 83.932 238.713 83.2226C238.713 82.5226 238.475 81.9346 237.999 81.4586C237.523 80.9826 236.93 80.7446 236.221 80.7446C235.512 80.7446 234.919 80.9826 234.443 81.4586C233.967 81.9346 233.729 82.5226 233.729 83.2226C233.729 83.932 233.967 84.5246 234.443 85.0006ZM248.48 80.9406C248.882 80.0726 249.61 79.6386 250.664 79.6386V80.9126C250.067 80.8846 249.554 81.0433 249.124 81.3886C248.695 81.734 248.48 82.2893 248.48 83.0546V86.7646H247.262V79.7646H248.48V80.9406ZM262.881 85.8826C262.163 86.592 261.29 86.9466 260.263 86.9466C259.237 86.9466 258.364 86.592 257.645 85.8826C256.936 85.1733 256.581 84.3006 256.581 83.2646C256.581 82.2286 256.936 81.356 257.645 80.6466C258.364 79.9373 259.237 79.5826 260.263 79.5826C261.29 79.5826 262.163 79.9373 262.881 80.6466C263.6 81.356 263.959 82.2286 263.959 83.2646C263.959 84.3006 263.6 85.1733 262.881 85.8826ZM260.263 85.7566C260.963 85.7566 261.551 85.5186 262.027 85.0426C262.503 84.5666 262.741 83.974 262.741 83.2646C262.741 82.5553 262.503 81.9626 262.027 81.4866C261.551 81.0106 260.963 80.7726 260.263 80.7726C259.573 80.7726 258.989 81.0106 258.513 81.4866C258.037 81.9626 257.799 82.5553 257.799 83.2646C257.799 83.974 258.037 84.5666 258.513 85.0426C258.989 85.5186 259.573 85.7566 260.263 85.7566ZM274.185 86.9466C273.13 86.9466 272.253 86.5966 271.553 85.8966C270.853 85.1873 270.503 84.31 270.503 83.2646C270.503 82.2193 270.853 81.3466 271.553 80.6466C272.253 79.9373 273.13 79.5826 274.185 79.5826C274.876 79.5826 275.496 79.7506 276.047 80.0866C276.598 80.4133 277.008 80.8566 277.279 81.4166L276.257 82.0046C276.08 81.6313 275.804 81.3326 275.431 81.1086C275.067 80.8846 274.652 80.7726 274.185 80.7726C273.485 80.7726 272.897 81.0106 272.421 81.4866C271.954 81.9626 271.721 82.5553 271.721 83.2646C271.721 83.9646 271.954 84.5526 272.421 85.0286C272.897 85.5046 273.485 85.7426 274.185 85.7426C274.652 85.7426 275.072 85.6353 275.445 85.4206C275.818 85.1966 276.103 84.898 276.299 84.5246L277.335 85.1266C277.036 85.6773 276.607 86.1206 276.047 86.4566C275.487 86.7833 274.866 86.9466 274.185 86.9466ZM284.796 83.8246C284.917 84.45 285.202 84.9353 285.65 85.2806C286.107 85.626 286.667 85.7986 287.33 85.7986C288.254 85.7986 288.926 85.458 289.346 84.7766L290.382 85.3646C289.701 86.4193 288.674 86.9466 287.302 86.9466C286.191 86.9466 285.286 86.6013 284.586 85.9106C283.895 85.2106 283.55 84.3286 283.55 83.2646C283.55 82.21 283.891 81.3326 284.572 80.6326C285.253 79.9326 286.135 79.5826 287.218 79.5826C288.245 79.5826 289.08 79.9466 289.724 80.6746C290.377 81.3933 290.704 82.2613 290.704 83.2786C290.704 83.456 290.69 83.638 290.662 83.8246H284.796ZM287.218 80.7306C286.565 80.7306 286.023 80.9173 285.594 81.2906C285.165 81.6546 284.899 82.1446 284.796 82.7606H289.472C289.369 82.098 289.108 81.594 288.688 81.2486C288.268 80.9033 287.778 80.7306 287.218 80.7306ZM298.822 80.9406C299.223 80.0726 299.951 79.6386 301.006 79.6386V80.9126C300.409 80.8846 299.895 81.0433 299.466 81.3886C299.037 81.734 298.822 82.2893 298.822 83.0546V86.7646H297.604V79.7646H298.822V80.9406ZM308.314 78.4906C308.08 78.4906 307.884 78.4113 307.726 78.2526C307.567 78.094 307.488 77.9026 307.488 77.6786C307.488 77.4546 307.567 77.2633 307.726 77.1046C307.884 76.9366 308.08 76.8526 308.314 76.8526C308.538 76.8526 308.729 76.9366 308.888 77.1046C309.046 77.2633 309.126 77.4546 309.126 77.6786C309.126 77.9026 309.046 78.094 308.888 78.2526C308.729 78.4113 308.538 78.4906 308.314 78.4906ZM307.698 86.7646V79.7646H308.916V86.7646H307.698ZM317.128 83.8246C317.249 84.45 317.534 84.9353 317.982 85.2806C318.439 85.626 318.999 85.7986 319.662 85.7986C320.586 85.7986 321.258 85.458 321.678 84.7766L322.714 85.3646C322.033 86.4193 321.006 86.9466 319.634 86.9466C318.523 86.9466 317.618 86.6013 316.918 85.9106C316.227 85.2106 315.882 84.3286 315.882 83.2646C315.882 82.21 316.223 81.3326 316.904 80.6326C317.585 79.9326 318.467 79.5826 319.55 79.5826C320.577 79.5826 321.412 79.9466 322.056 80.6746C322.709 81.3933 323.036 82.2613 323.036 83.2786C323.036 83.456 323.022 83.638 322.994 83.8246H317.128ZM319.55 80.7306C318.897 80.7306 318.355 80.9173 317.926 81.2906C317.497 81.6546 317.231 82.1446 317.128 82.7606H321.804C321.701 82.098 321.44 81.594 321.02 81.2486C320.6 80.9033 320.11 80.7306 319.55 80.7306ZM333.539 80.9406H331.677V84.7346C331.677 85.08 331.742 85.3273 331.873 85.4766C332.013 85.6166 332.223 85.6913 332.503 85.7006C332.783 85.7006 333.128 85.6913 333.539 85.6726V86.7646C332.475 86.9046 331.696 86.8206 331.201 86.5126C330.706 86.1953 330.459 85.6026 330.459 84.7346V80.9406H329.073V79.7646H330.459V78.1686L331.677 77.8046V79.7646H333.539V80.9406Z" fill="#53B175"/>
</svg>
