<svg width="21" height="25" viewBox="0 0 21 25" fill="none" xmlns="http://www.w3.org/2000/svg">
<path d="M5.06001 12.5875C5.23604 12.5219 5.42535 12.4878 5.61673 12.4872C5.80812 12.4866 5.9977 12.5195 6.17428 12.584C6.35085 12.6484 6.51083 12.7431 6.64476 12.8625C6.77868 12.9819 6.88384 13.1235 6.95401 13.2789C7.02418 13.4344 7.05794 13.6005 7.0533 13.7676C7.04865 13.9346 7.0057 14.0991 6.92697 14.2514C6.84824 14.4037 6.73533 14.5407 6.59493 14.6542C6.45452 14.7678 6.28947 14.8556 6.10952 14.9125C5.15242 15.2417 4.33097 15.8148 3.75206 16.5572C3.17314 17.2996 2.86357 18.1769 2.86361 19.075V21.25C2.86361 21.5815 3.01446 21.8995 3.28298 22.1339C3.5515 22.3683 3.91568 22.5 4.29542 22.5H15.7499C16.1296 22.5 16.4938 22.3683 16.7623 22.1339C17.0308 21.8995 17.1817 21.5815 17.1817 21.25V19.1912C17.1818 18.2643 16.8593 17.3593 16.2569 16.596C15.6544 15.8328 14.8005 15.2474 13.8083 14.9175C13.6273 14.8626 13.4607 14.7766 13.3184 14.6645C13.1761 14.5524 13.0611 14.4165 12.9801 14.2648C12.8991 14.1132 12.8538 13.9489 12.8469 13.7817C12.84 13.6145 12.8716 13.4477 12.9398 13.2914C13.0081 13.135 13.1116 12.9922 13.2443 12.8715C13.3769 12.7507 13.536 12.6544 13.7121 12.5883C13.8881 12.5222 14.0776 12.4876 14.2693 12.4866C14.4609 12.4856 14.6508 12.5182 14.8278 12.5825C16.3621 13.0927 17.6827 13.9979 18.6144 15.1781C19.5462 16.3583 20.0452 17.7579 20.0453 19.1912V21.25C20.0453 22.2446 19.5927 23.1984 18.7872 23.9017C17.9817 24.6049 16.8891 25 15.7499 25H4.29542C3.1562 25 2.06365 24.6049 1.2581 23.9017C0.452552 23.1984 0 22.2446 0 21.25L0 19.075C0.000197018 17.6752 0.482915 16.3078 1.38536 15.1508C2.28781 13.9938 3.56821 13.1006 5.06001 12.5875ZM10.0226 0C11.5416 0 12.9983 0.526784 14.0724 1.46447C15.1465 2.40215 15.7499 3.67392 15.7499 5V7.5C15.7499 8.82608 15.1465 10.0979 14.0724 11.0355C12.9983 11.9732 11.5416 12.5 10.0226 12.5C8.50369 12.5 7.04695 11.9732 5.97289 11.0355C4.89882 10.0979 4.29542 8.82608 4.29542 7.5V5C4.29542 3.67392 4.89882 2.40215 5.97289 1.46447C7.04695 0.526784 8.50369 0 10.0226 0ZM10.0226 2.5C9.26317 2.5 8.5348 2.76339 7.99777 3.23223C7.46074 3.70107 7.15904 4.33696 7.15904 5V7.5C7.15904 8.16304 7.46074 8.79893 7.99777 9.26777C8.5348 9.73661 9.26317 10 10.0226 10C10.7821 10 11.5105 9.73661 12.0475 9.26777C12.5846 8.79893 12.8863 8.16304 12.8863 7.5V5C12.8863 4.33696 12.5846 3.70107 12.0475 3.23223C11.5105 2.76339 10.7821 2.5 10.0226 2.5Z" fill="#181725"/>
</svg>
