<?xml version="1.0" encoding="utf-8"?>
<!-- Generator: Adobe Illustrator 26.0.0, SVG Export Plug-In . SVG Version: 6.00 Build 0)  -->
<svg version="1.1" id="Layer_1" xmlns="http://www.w3.org/2000/svg" xmlns:xlink="http://www.w3.org/1999/xlink" x="0px" y="0px"
	 viewBox="0 0 100 100" style="enable-background:new 0 0 100 100;" xml:space="preserve">
<g>
	<g>
		<path d="M88.3,86.3c0-0.5-0.3-0.9-0.5-1.2c-0.1-0.1-0.2-0.2-0.2-0.3c-1.9-3.3-3.8-6.6-5.7-9.9c-1.8-3.1-3.6-6.3-5.4-9.4
			c2.4-2.7,2.6-3.4,3.6-6.6l0.2-0.6c0.5-1.5,1.4-3.1,2.5-4c4-3.7,5.1-7.9,3.6-13.3c-0.5-1.6-0.5-3.7,0-5.3c1.6-5.5,0.4-9.8-3.6-13.3
			c-1.4-1.1-2.3-2.7-2.6-4.6c-0.9-5-4.2-8.4-9.1-9.4c-2.2-0.5-4-1.5-5.5-3.1c-3.5-4-7.8-5.2-12.6-3.6c-2.1,0.7-4.1,0.7-6.3,0
			C42,0.1,37.8,1.2,34.4,5c-1.5,1.7-3.2,2.7-5.3,3.1c-4.9,1.1-8.1,4.2-9.3,9.3c-0.4,1.8-1.4,3.6-2.6,4.7c-4.2,4-5.3,8.3-3.6,13.3
			c0.7,1.8,0.7,3.5,0.1,5.2c-1.8,5.2-0.7,9.6,3.5,13.5c0.8,0.8,1.9,2.1,2.3,3.7c0.7,2.6,1.6,5.5,4,7.6c-0.2,0.4-0.5,0.8-0.7,1.2
			c-3.6,6.2-7.3,12.5-10.9,18.9c-0.4,0.8-0.6,2.3,0,3.2c0.6,0.7,2.2,0.9,3,0.7c2.2-0.4,4.2-1,6.3-1.6c1.1-0.3,2.2-0.6,3.3-0.9
			c0.4,1.4,0.7,2.7,1.1,4c0.5,1.6,0.9,3.2,1.3,4.8c0,0.1,0.1,0.3,0.1,0.4c0.3,1,0.7,2.7,2.4,2.5c1.2-0.1,2.3-1.5,2.9-2.3
			c2.6-4.4,5.2-9,7.8-13.4c1.3-2.2,2.6-4.5,3.9-6.7l0.1-0.3c0.1-0.3,0.4-0.9,0.6-0.9c0.4-0.1,0.8-0.2,1.2-0.3c1.5-0.4,3-0.9,4.4-0.8
			c3,0.2,5.3,0.9,6.8,3.8c2.8,5.4,6,10.7,9.1,15.8l1.8,3c0.4,0.6,1,1.1,1.7,1.5c0.3,0.2,0.6,0.4,0.8,0.6l0.4,0.3l0.3-0.4
			c0.2-0.3,0.4-0.6,0.7-0.9c0.5-0.5,1-1.1,1.2-1.8c0.7-2.3,1.3-4.6,2-7c0.2-0.6,0.3-1.2,0.5-1.9c0.6,0.1,1,0.2,1.4,0.3
			c2.8,0.8,5.6,1.5,8.5,2.2c0.9,0.3,2.1-0.1,2.6-0.7C88.5,88.2,88.4,87.2,88.3,86.3z M39.3,74.6c-2.1,3.6-4.1,7.2-6.3,10.9l-2.7,4.7
			c-0.1-0.4-0.2-0.8-0.3-1.2c-0.5-1.7-0.9-3.3-1.5-4.7c-0.5-1.8-1.1-2.5-2.3-2.5c-0.4,0-0.9,0.1-1.4,0.2c-1.1,0.3-2.2,0.6-3.3,0.8
			c-0.9,0.2-1.8,0.5-2.8,0.7c0.7-1.2,1.4-2.4,2-3.6c1-1.8,2-3.5,3-5.2c0.4-0.7,0.8-1.4,1.2-2.1c0.4-0.7,0.8-1.3,1.2-2
			c0.2-0.3,0.3-0.5,0.5-0.8c0.4-0.6,1-1.8,1.3-1.8c1.3,0.1,2.6,0.6,4,1.2c0.3,0.1,0.7,0.3,1,0.4c0.2,0.1,0.3,0.3,0.5,0.4
			c0.1,0.1,0.1,0.2,0.2,0.2c0.2,0.2,0.4,0.4,0.6,0.7c0.7,0.7,1.3,1.4,2.1,2c0.7,0.5,1.5,0.9,2.3,1.3C39,74.4,39.1,74.5,39.3,74.6z
			 M56.9,70.4c-1-0.2-2-0.4-3-0.6c-2.7-0.9-5.3-0.9-8.1,0c-3.6,1.2-5.9,0.6-8.4-2.3c-1.9-2.2-4.2-3.5-7.1-4
			c-3.3-0.6-5.3-2.4-5.9-5.7c-0.5-3-2-5.5-4.5-7.7c-2.3-2-2.9-4.4-2-7.1c1.2-3.3,1.2-6.4,0-9.7c-1-2.7-0.3-5.1,2.1-7.1
			c2.5-2.2,3.9-4.6,4.4-7.4c0.6-3.5,2.7-5.5,6.3-6.1c2.7-0.4,4.9-1.7,6.9-4c1.6-1.9,3.2-2.8,5.2-2.8c0.9,0,1.9,0.2,3,0.6
			c2.8,1,5.5,1,8.3,0C57.2,5.2,60,6,62.2,8.6c1.9,2.2,4.4,3.6,7.4,4.1c3.4,0.6,5.3,2.5,5.8,5.8c0.5,3,2,5.5,4.1,7.2
			c2.7,2.2,3.4,5,2.2,8.5c-0.9,2.5-1,5.1,0,7.9c1.3,3.5,0.6,5.8-2.3,8.4c-2.1,1.8-3.5,4.3-4,7.3c-0.6,3.3-2.5,5.2-5.8,5.8
			c-3,0.5-5.4,1.9-7.4,4.2C60.8,69.4,59.1,70.3,56.9,70.4z M78.9,83c-1.1-0.3-2.1-0.6-3.2-0.8l0,0c-1.5-0.4-2.4-0.6-3.1-0.1
			c-0.7,0.4-1.1,1.3-1.5,2.9c-0.2,1-0.5,1.9-0.8,2.9c-0.2,0.8-0.4,1.6-0.6,2.4l-3.3-5.6c-1.9-3.3-3.8-6.5-5.6-9.7
			c0.9-0.8,1.8-1.5,2.6-2.3c0.9-0.9,1.8-1.7,2.7-2.3c1.5-0.9,3.3-1.5,5-2.1l0.6-0.2c0.1,0,0.5,0.2,0.6,0.5c2.4,4.1,4.7,8.1,7.1,12.3
			l1.7,3C80.4,83.4,79.7,83.2,78.9,83z"/>
	</g>
	<g>
		<path d="M73.6,47.6C69.9,57.3,60.5,63.7,50,63.7c-11.9,0-21.9-8.2-24.5-19.8C23,32.6,28.9,20.9,39.4,16c0.4-0.2,0.8-0.4,1.4-0.5
			c0.8-0.3,1.7-0.3,2.2,0.1c0.3,0.2,0.7,0.6,0.8,1.4c0.1,1-0.7,2.2-1.3,2.8c-0.8,0.6-1.6,1-2.4,1.5c-0.8,0.4-1.6,0.9-2.3,1.4
			c-6.9,5.1-9.8,14.1-7.1,22.4S41,59,49.5,59.1c9.7,0.2,18.1-6.3,20.3-15.7c2.2-9.4-2.5-18.9-11.4-23c-0.1,0-0.2-0.1-0.3-0.1
			s-0.3-0.1-0.4-0.2c-2-0.9-1.8-2.4-1.5-3.1s0.7-1.1,1.3-1.4c0.6-0.3,1.4-0.2,2.1,0.1l1.1,0.6c2,1.1,4,2.1,5.7,3.7
			C74.5,26.5,77.3,37.7,73.6,47.6z"/>
	</g>
	<g>
		<path d="M64.5,31.7c-0.6-0.6-1.1-1.1-1.6-1.7c-1-1.1-2.1-2.2-3.2-3.2c-0.9-0.9-1.5-1.3-2.2-1.3s-1.4,0.4-2.3,1.3
			c-1.2,1.2-2.4,2.5-3.7,3.7c-1.2,1.2-2.4,2.4-3.6,3.7c-1-1-2-2.1-2.9-3.1c-0.7-0.7-1.5-1.1-2.2-1.1s-1.4,0.4-2.1,1.1L35.8,36
			c-1.6,1.6-1.6,2.7,0,4.4c3.2,3.3,6.6,6.8,10,10.1c0.8,0.8,1.5,1.2,2.2,1.2s1.4-0.4,2.2-1.2c3.2-3.2,6.5-6.4,9.6-9.6
			c1.6-1.6,3.2-3.2,4.8-4.9C66.1,34.4,66.1,33.4,64.5,31.7z M59.5,33.6c-3.9,3.9-7.9,7.9-11.7,11.6l-7.1-7.1
			c0.4-0.3,0.9-0.8,1.5-1.2c0.3-0.3,0.7-0.6,1.1-0.9c0.6,0.7,1.4,1.7,2.3,2.6c0.7,0.7,1.5,1.4,2.4,1.4s1.7-0.7,2.4-1.4
			c2.3-2.3,4.6-4.7,7-7.2l0,0c0.7,0.7,1.3,1.2,1.8,1.8C59.2,33.3,59.3,33.5,59.5,33.6z"/>
	</g>
	<g>
		<path d="M52.4,16.2l-0.1,0.6L52.2,17c-0.2,0.1-0.3,0.3-0.5,0.5c-0.5,0.4-1,0.7-1.6,0.7c-0.1,0-0.1,0-0.2,0
			c-0.7-0.1-1.5-0.9-1.8-1.3c-0.2-0.3-0.3-0.6-0.3-0.9c0.2-1,1.4-2.1,2.2-2.2c0.7-0.1,1.3,0.5,1.9,1c0.2,0.2,0.1,0.1,0.3,0.3
			l0.2,0.5"/>
	</g>
</g>
</svg>
